# xmcd
# 
# Track frame offsets:
#     150
#     40887
#     106092
#     197635
# 
# Disc length: 3485
# 
# Revision: 0
# Processed by: cddbd v1.5.2PL0 Copyright (c) Steve Scherf et al.
# Submitted via: fre:ac v1.0.17
# 
DISCID=2a0d9b04
DTITLE=Elmore Leonard-Taye Diggs - When the Women Come Out to Dance Disc 3
DYEAR=2002
DGENRE=Audiobook
TTITLE0=Disc 3 Track 1
TTITLE1=Disc 3 Track 2
TTITLE2=Disc 3 Track 3
TTITLE3=Disc 3 Track 4
EXTD=
EXTT0=
EXTT1=
EXTT2=
EXTT3=
PLAYORDER=
